<?xml version="1.0" encoding="UTF-8"?><svg id="a" xmlns="http://www.w3.org/2000/svg" xmlns:xlink="http://www.w3.org/1999/xlink" viewBox="0 0 1600 750"><defs><style>.e{fill:url(#d);}.f{fill:url(#c);}.g{fill:url(#b);}.h{fill:#fff;}</style><linearGradient id="b" x1="227.55" y1="1964.09" x2="227.55" y2="1669" gradientTransform="translate(0 2350.42) scale(1 -1)" gradientUnits="userSpaceOnUse"><stop offset="0" stop-color="#6800db"/><stop offset="0" stop-color="#6700db"/><stop offset=".15" stop-color="#5e28e6"/><stop offset=".31" stop-color="#5648ef"/><stop offset=".46" stop-color="#5061f6"/><stop offset=".63" stop-color="#4c73fb"/><stop offset=".8" stop-color="#497efe"/><stop offset="1" stop-color="#4982ff"/></linearGradient><linearGradient id="c" x1="160.29" y1="1711.55" x2="554.44" y2="2112.36" gradientTransform="translate(0 2350.42) scale(1 -1)" gradientUnits="userSpaceOnUse"><stop offset="0" stop-color="#09a6f3"/><stop offset=".53" stop-color="#4982ff"/><stop offset="1" stop-color="#6800db"/></linearGradient><linearGradient id="d" x1="291.29" y1="1911.79" x2="122.12" y2="2080.96" xlink:href="#b"/></defs><g><polygon class="g" points="130.57 666.29 324.53 472.33 324.53 472.1 130.57 472.1 130.57 666.29"/><path class="f" d="M324.53,277.67l-.24,.24-193.72,193.72v.47h387.92V83.71l-193.96,193.96Z"/><polygon class="e" points="130.57 277.9 130.57 471.63 324.29 277.9 130.57 277.9"/></g><g><path class="h" d="M661.18,471.61V245.84h20.49l136.1,181.58V245.84h24.33v225.77h-19.85l-136.42-182.21v182.21h-24.66Z"/><path class="h" d="M879.95,277.23v-29.14h32.02v29.14h-32.02Zm3.2,194.38v-155.64h25.94v155.64h-25.94Z"/><path class="h" d="M963.37,471.61v-135.46h-30.74v-20.18h30.74v-5.44c0-20.7,5.17-36.4,15.53-47.07,10.35-10.67,26.31-16.65,47.87-17.93l12.49-.64,2.24,19.86-14.73,.96c-13.24,1.07-22.79,5.02-28.66,11.85-5.87,6.83-8.8,16.76-8.8,29.78v8.64h44.83v20.18h-44.83v135.46h-25.94Z"/><path class="h" d="M1133.12,474.49c-18.36,0-32.14-4.85-41.31-14.57-9.18-9.71-13.77-23.75-13.77-42.11v-81.66h-30.42v-20.18h30.42v-47.72h25.94v47.72h49.31v20.18h-49.31v79.1c0,12.17,2.56,21.41,7.69,27.7,5.12,6.3,13.44,9.45,24.97,9.45,3.42,0,6.83-.43,10.25-1.28,3.41-.85,6.51-1.71,9.29-2.56l4.48,19.86c-2.78,1.5-6.83,2.88-12.17,4.16-5.34,1.28-10.46,1.92-15.37,1.92Z"/><path class="h" d="M1207.8,529.25l26.58-60.2-65.65-153.07h28.18l51.56,126.17,51.88-126.17h27.22l-92.55,213.28h-27.22Z"/><path class="h" d="M1348.54,471.61v-17.29l89.02-118.17h-89.02v-20.18h117.84v17.29l-89.03,118.17h92.55v20.18h-121.36Z"/></g></svg>