<svg width="724" height="755" viewBox="0 0 724 755" fill="none" xmlns="http://www.w3.org/2000/svg">
<path d="M326.521 175.004H349.854V198.337H326.521V175.004Z" fill="#07073F"/>
<path d="M396.521 175.004H419.854V198.337H396.521V175.004Z" fill="#07073F"/>
<path d="M356.267 255.497L379.6 267.164L390.1 246.309L378.58 240.622L394.621 216.559L375.225 203.58L351.892 238.58C348.246 243.976 349.704 251.122 355.1 254.768C355.392 254.914 355.83 255.206 356.267 255.497Z" fill="#07073F"/>
<path d="M373.188 291.671C366.771 291.671 361.521 286.421 361.521 280.004H338.188C338.188 299.4 353.792 315.004 373.188 315.004C392.584 315.004 408.188 299.4 408.188 280.004H384.854C384.854 286.421 379.604 291.671 373.188 291.671Z" fill="#07073F"/>
<path d="M717.348 94.9416L676.223 71.4629C647.493 55.1296 612.348 55.1296 583.619 71.4629L542.348 94.9416C536.806 98.1498 534.765 105.296 537.973 110.838C538.994 112.588 540.452 114.192 542.348 115.212L583.473 138.691C612.203 155.024 647.348 155.024 676.077 138.691L717.348 115.066C722.889 111.858 724.931 104.712 721.723 99.1698C720.556 97.4198 719.098 95.9625 717.348 94.9416ZM598.203 120.024C597.182 119.441 596.161 119.003 595.14 118.42L571.661 105.004L595.14 91.5881C596.161 91.0048 597.182 90.4214 598.203 89.984C593.682 99.4632 593.682 110.546 598.203 120.024ZM629.848 116.67C623.431 116.67 618.181 111.42 618.181 105.003C618.181 98.5868 623.431 93.3368 629.848 93.3368C636.265 93.3368 641.515 98.5868 641.515 105.003C641.515 111.42 636.265 116.67 629.848 116.67ZM664.556 118.42C663.535 119.003 662.514 119.587 661.493 120.024C666.014 110.545 666.014 99.4616 661.493 89.9829C662.514 90.5662 663.535 91.0037 664.556 91.587L688.035 105.003L664.556 118.42Z" fill="#07073F"/>
<path d="M563.281 31.6035L579.781 15.1035L603.088 38.4102L586.588 54.9102L563.281 31.6035Z" fill="#07073F"/>
<path d="M618.188 0.00390625H641.521V35.0039H618.188V0.00390625Z" fill="#07073F"/>
<path d="M656.628 38.4317L679.935 15.125L696.435 31.625L673.128 54.9317L656.628 38.4317Z" fill="#07073F"/>
<path d="M181.121 129.791L174.267 122.937L167.413 68.2493C164.787 46.9573 149.038 29.604 128.183 24.6453V0H104.85V24.6453C83.9952 29.6037 68.2459 46.9573 65.6205 68.2493L58.7664 122.937L51.9123 129.791C40.9748 140.729 34.8496 155.603 34.8496 171.062V186.666C34.8496 193.083 40.0996 198.333 46.5163 198.333H81.5163V209.999C81.5163 229.395 97.1203 244.999 116.516 244.999C135.912 244.999 151.516 229.395 151.516 209.999V198.333H186.516C192.933 198.333 198.183 193.083 198.183 186.666V171.062C198.183 155.458 192.058 140.729 181.121 129.791ZM88.8088 71.1661C90.7047 55.8541 104.705 44.9155 120.017 46.8115C132.704 48.4156 142.766 58.3323 144.371 71.1661L150.059 116.666H83.1216L88.8088 71.1661ZM128.183 209.993C128.183 216.409 122.933 221.659 116.517 221.659C110.1 221.659 104.85 216.409 104.85 209.993V198.326H128.183V209.993ZM174.85 174.993H58.1835V171.055C58.1835 161.722 61.8293 152.826 68.3917 146.263L74.6625 139.993H158.371L164.641 146.263C171.204 152.826 174.85 161.722 174.85 171.055L174.85 174.993Z" fill="#07073F"/>
<path d="M182.907 35.584L217.913 23.9121L225.293 46.0481L190.287 57.72L182.907 35.584Z" fill="#07073F"/>
<path d="M654.495 309.898L623.577 297.503L644.723 262.357C652.889 248.795 648.514 231.149 634.806 222.983C622.118 215.399 605.931 218.608 597.035 230.42L591.931 237.274L581.723 227.066C570.785 216.128 553.578 214.962 541.327 224.295C568.452 131.546 515.368 34.2684 422.619 7.14837C329.87 -19.9716 232.592 33.107 205.472 125.856C200.806 141.898 198.472 158.378 198.472 175.002C198.326 207.96 207.66 240.335 225.306 268.335H58.1855C38.9349 268.335 23.1855 284.084 23.1855 303.335V466.668C23.1855 485.919 38.9349 501.668 58.1855 501.668H113.311C109.519 511.148 106.894 520.919 105.582 530.98L81.6643 698.394L104.706 701.748L128.623 534.481C130.227 523.106 133.727 512.023 138.831 501.815L139.852 499.919C153.852 473.668 178.207 454.564 207.081 447.419L210.436 446.544L221.519 700.584L244.852 699.563L233.623 440.709L255.935 435.168L330.747 502.543C350.288 520.188 361.518 545.417 361.518 571.813C361.518 578.23 366.768 583.48 373.184 583.48C379.601 583.48 384.851 578.23 384.851 571.813C384.851 545.417 396.08 520.335 415.622 502.543L490.434 435.168L512.746 440.709L501.517 699.563L524.85 700.584L535.933 446.544L539.287 447.419C545.121 448.877 550.662 450.773 556.205 453.252L541.621 629.412C538.558 665.287 565.099 696.787 600.829 699.996C636.558 703.205 668.203 676.517 671.413 640.788C671.704 636.996 671.704 633.351 671.413 629.559L653.183 407.892V400.163L670.683 373.912C674.475 368.225 676.517 361.371 676.517 354.516V342.412C676.517 328.12 667.767 315.287 654.495 309.891L654.495 309.898ZM221.521 175.005C221.667 91.2971 289.625 23.3384 373.335 23.485C457.044 23.6317 525.001 91.589 524.855 175.298C524.855 204.902 516.105 233.924 499.772 258.569C500.647 250.111 500.647 241.506 499.772 233.048L489.126 127.173C488.543 121.194 483.585 116.673 477.459 116.673H268.193C262.214 116.673 257.109 121.194 256.526 127.173L245.88 233.048C245.005 241.214 245.005 249.526 245.88 257.693C229.984 233.048 221.38 204.318 221.526 175.005H221.521ZM372.895 350.005C315.291 350.005 268.624 303.338 268.624 245.734C268.624 242.234 268.77 238.88 269.207 235.38L278.686 140.006H467.1L476.579 235.38C482.267 292.692 440.558 343.735 383.246 349.422C379.892 349.859 376.392 350.005 372.892 350.005L372.895 350.005ZM419.853 364.297V402.652L417.812 404.256C391.708 425.256 354.666 425.256 328.561 404.256L326.519 402.652V364.589C356.561 376.402 389.957 376.255 419.853 364.297ZM174.853 326.672V434.442C154.875 444.505 137.812 459.525 125.416 478.338H58.1866C51.7699 478.338 46.5199 473.088 46.5199 466.672V303.338C46.5199 296.922 51.7699 291.672 58.1866 291.672H205.04L178.352 318.36C176.019 320.547 174.852 323.61 174.852 326.672L174.853 326.672ZM201.395 424.672C200.228 424.963 199.207 425.255 198.186 425.547V331.484L240.478 289.192C247.478 297.213 255.208 304.651 263.52 311.359C273.436 327.984 286.998 341.984 303.186 352.484V399.151L201.395 424.672ZM400.021 485.046C388.792 495.109 379.751 507.213 373.188 520.776C366.625 507.213 357.439 495.109 346.355 485.046L283.209 428.172L312.084 420.88L313.98 422.484C348.542 450.192 397.835 450.192 432.396 422.484L434.292 420.88L463.166 428.172L400.021 485.046ZM559.861 407.901L558.111 428.756C553.736 427.152 549.361 425.839 544.841 424.672L443.195 399.298V352.339C458.944 341.985 472.07 328.276 481.841 312.235C501.674 296.486 518.007 276.651 529.528 254.047C529.966 256.964 530.987 259.88 532.299 262.651L548.633 295.173L546.737 297.506C539.445 307.277 537.695 320.11 542.216 331.485L559.861 375.526V407.901ZM553.153 252.154C551.257 248.509 552.861 243.988 556.507 242.092C559.424 240.633 562.924 241.217 565.111 243.55L577.799 256.238L564.236 274.175L553.153 252.154ZM637.298 663.114C621.694 680.177 595.298 681.344 578.236 665.739C568.611 656.989 563.652 644.155 564.82 631.177L582.32 420.003H630.882L648.237 631.177C649.258 642.989 645.319 654.51 637.298 663.114ZM653.194 354.674C653.194 357.008 652.465 359.195 651.298 361.091L631.902 390.258C630.59 392.154 630.007 394.487 630.007 396.674H583.34V373.341C583.34 371.883 583.048 370.424 582.465 368.966L563.944 322.737C562.485 318.945 563.069 314.716 565.402 311.362L615.714 244.279C617.464 241.946 620.818 241.363 623.297 243.258C625.485 244.863 626.068 247.925 624.756 250.404L596.756 297.071L581.297 320.112L600.693 333.091L611.047 317.633L645.902 331.633C650.277 333.383 653.194 337.758 653.194 342.424L653.194 354.674Z" fill="#07073F"/>
<path d="M19.4531 46.0559L26.8334 23.9199L50.2134 31.7117L42.8331 53.8477L19.4531 46.0559Z" fill="#07073F"/>
<path d="M69.8545 326.672H151.521V350.005H69.8545V326.672Z" fill="#07073F"/>
<path d="M69.8545 373.338H151.521V396.671H69.8545V373.338Z" fill="#07073F"/>
<path d="M69.8545 420.004H128.188V443.337H69.8545V420.004Z" fill="#07073F"/>
<path d="M4.7289 744.922C4.4789 745.047 4.21327 745.146 3.93723 745.213C3.67161 745.281 3.39557 745.318 3.1039 745.318C2.21327 745.318 1.50497 745.078 0.978834 744.588C0.463208 744.088 0.208008 743.417 0.208008 742.568C0.208008 741.708 0.463221 741.036 0.978834 740.547C1.50487 740.047 2.21321 739.797 3.1039 739.797C3.39557 739.797 3.67161 739.833 3.93723 739.901C4.21327 739.974 4.4789 740.068 4.7289 740.193V741.297C4.4789 741.13 4.2289 741.005 3.9789 740.922C3.73931 740.839 3.48411 740.797 3.20807 740.797C2.71849 740.797 2.33307 740.958 2.04141 741.276C1.76015 741.583 1.62474 742.016 1.62474 742.568C1.62474 743.109 1.76015 743.542 2.04141 743.859C2.33307 744.167 2.71849 744.318 3.20807 744.318C3.48411 744.318 3.73933 744.286 3.9789 744.214C4.2289 744.13 4.4789 744 4.7289 743.818V744.922Z" fill="#07073F"/>
<path d="M8.78678 742.316C8.67219 742.264 8.56282 742.223 8.45344 742.191C8.33886 742.165 8.22948 742.15 8.12011 742.15C7.78678 742.15 7.52636 742.264 7.34928 742.483C7.18262 742.691 7.09928 742.994 7.09928 743.379V745.212H5.80762V741.233H7.09928V741.879C7.25032 741.618 7.43262 741.431 7.64095 741.316C7.8597 741.191 8.12012 741.129 8.41178 741.129H8.55762C8.6097 741.129 8.68262 741.139 8.76595 741.15L8.78678 742.316Z" fill="#07073F"/>
<path d="M13.3851 743.212V743.566H10.4059C10.4476 743.874 10.557 744.103 10.7392 744.254C10.9163 744.395 11.1767 744.462 11.5101 744.462C11.7861 744.462 12.0622 744.431 12.3434 744.358C12.6194 744.275 12.9059 744.15 13.1976 743.983V744.962C12.9059 745.087 12.6038 745.181 12.3017 745.233C11.9944 745.285 11.6976 745.316 11.4059 745.316C10.6819 745.316 10.1194 745.139 9.71842 744.775C9.31216 744.4 9.11426 743.879 9.11426 743.212C9.11426 742.577 9.30696 742.066 9.69759 741.691C10.0986 741.316 10.6403 741.129 11.3227 741.129C11.9477 741.129 12.4477 741.316 12.8227 741.691C13.1977 742.066 13.3851 742.577 13.3851 743.212ZM12.0934 742.775C12.0934 742.54 12.0153 742.353 11.8643 742.212C11.7236 742.061 11.5414 741.983 11.3226 741.983C11.0726 741.983 10.8695 742.056 10.7184 742.191C10.5622 742.332 10.4684 742.525 10.4268 742.775L12.0934 742.775Z" fill="#07073F"/>
<path d="M16.1409 743.421C15.8752 743.421 15.6721 743.473 15.5367 743.566C15.4117 743.65 15.3492 743.785 15.3492 743.962C15.3492 744.119 15.3961 744.244 15.4951 744.337C15.6044 744.421 15.7555 744.462 15.9534 744.462C16.1878 744.462 16.3909 744.379 16.5576 744.212C16.7242 744.046 16.8076 743.832 16.8076 743.566V743.421H16.1409ZM18.0993 742.941V745.212H16.8076V744.629C16.6409 744.868 16.443 745.04 16.2243 745.15C16.0159 745.259 15.7555 745.316 15.4534 745.316C15.0368 745.316 14.693 745.202 14.4326 744.962C14.1826 744.712 14.0576 744.4 14.0576 744.025C14.0576 743.556 14.2139 743.207 14.5368 742.983C14.8545 742.764 15.3597 742.65 16.0576 742.65H16.8076V742.566C16.8076 742.358 16.7243 742.212 16.5576 742.129C16.4013 742.035 16.1618 741.983 15.8284 741.983C15.5472 741.983 15.292 742.014 15.0576 742.066C14.818 742.124 14.6045 742.202 14.4118 742.296V741.337C14.6722 741.27 14.943 741.223 15.2243 741.191C15.5003 741.15 15.7763 741.129 16.0576 741.129C16.7763 741.129 17.2972 741.275 17.6201 741.566C17.9378 741.848 18.0993 742.306 18.0993 742.941Z" fill="#07073F"/>
<path d="M20.6663 740.088V741.234H21.9788V742.13H20.6663V743.838C20.6663 744.02 20.6976 744.145 20.7705 744.213C20.8538 744.27 21.0049 744.296 21.2288 744.296H21.8747V745.213H20.7913C20.2757 745.213 19.9163 745.109 19.708 744.9C19.4997 744.692 19.3955 744.338 19.3955 743.838V742.13H18.7705V741.234H19.3955V740.088L20.6663 740.088Z" fill="#07073F"/>
<path d="M26.7347 743.212V743.566H23.7555C23.7972 743.874 23.9066 744.103 24.0889 744.254C24.2659 744.395 24.5263 744.462 24.8597 744.462C25.1357 744.462 25.4118 744.431 25.693 744.358C25.9691 744.275 26.2555 744.15 26.5472 743.983V744.962C26.2555 745.087 25.9534 745.181 25.6513 745.233C25.344 745.285 25.0472 745.316 24.7555 745.316C24.0315 745.316 23.469 745.139 23.068 744.775C22.6618 744.4 22.4639 743.879 22.4639 743.212C22.4639 742.577 22.6566 742.066 23.0472 741.691C23.4482 741.316 23.9899 741.129 24.6723 741.129C25.2973 741.129 25.7973 741.316 26.1723 741.691C26.5473 742.066 26.7347 742.577 26.7347 743.212ZM25.4431 742.775C25.4431 742.54 25.3649 742.353 25.2139 742.212C25.0733 742.061 24.891 741.983 24.6722 741.983C24.4222 741.983 24.2191 742.056 24.0681 742.191C23.9118 742.332 23.8181 742.525 23.7764 742.775L25.4431 742.775Z" fill="#07073F"/>
<path d="M30.4326 741.818V739.672H31.7035V745.213H30.4326V744.63C30.2503 744.87 30.0576 745.042 29.8493 745.151C29.641 745.26 29.3962 745.318 29.1201 745.318C28.6201 745.318 28.2087 745.125 27.891 744.734C27.5837 744.349 27.4326 743.838 27.4326 743.214C27.4326 742.604 27.5837 742.104 27.891 741.714C28.2087 741.328 28.6201 741.13 29.1201 741.13C29.3805 741.13 29.6201 741.187 29.8285 741.297C30.0472 741.411 30.2504 741.583 30.4326 741.818ZM29.5785 744.401C29.8545 744.401 30.0628 744.307 30.2035 744.109C30.3545 743.901 30.4326 743.604 30.4326 743.214C30.4326 742.839 30.3545 742.557 30.2035 742.359C30.0628 742.151 29.8545 742.047 29.5785 742.047C29.3128 742.047 29.1045 742.151 28.9535 742.359C28.8128 742.557 28.7451 742.839 28.7451 743.214C28.7451 743.604 28.8128 743.901 28.9535 744.109C29.1045 744.307 29.3128 744.401 29.5785 744.401Z" fill="#07073F"/>
<path d="M37.583 744.401C37.859 744.401 38.0674 744.307 38.208 744.109C38.359 743.901 38.4372 743.604 38.4372 743.213C38.4372 742.838 38.3591 742.557 38.208 742.359C38.0674 742.151 37.859 742.047 37.583 742.047C37.3174 742.047 37.109 742.151 36.958 742.359C36.8174 742.557 36.7497 742.839 36.7497 743.213C36.7497 743.604 36.8174 743.901 36.958 744.109C37.109 744.307 37.3174 744.401 37.583 744.401ZM36.7497 741.818C36.9163 741.583 37.1038 741.411 37.3122 741.297C37.5309 741.187 37.7809 741.13 38.0622 741.13C38.5466 741.13 38.9476 741.328 39.2705 741.714C39.5882 742.104 39.7497 742.604 39.7497 743.214C39.7497 743.839 39.5882 744.349 39.2705 744.734C38.9476 745.125 38.5466 745.318 38.0622 745.318C37.7809 745.318 37.5309 745.26 37.3122 745.151C37.1038 745.042 36.9163 744.87 36.7497 744.63V745.213H35.458V739.672H36.7497V741.818Z" fill="#07073F"/>
<path d="M40.1611 741.234H41.432L42.5153 743.922L43.432 741.234H44.7028L43.0153 745.589C42.8487 746.031 42.6507 746.344 42.432 746.526C42.208 746.703 41.9112 746.797 41.5361 746.797H40.807V745.943H41.2028C41.4216 745.943 41.583 745.906 41.682 745.839C41.7757 745.766 41.8539 745.651 41.9112 745.484L41.9528 745.359L40.1611 741.234Z" fill="#07073F"/>
<path d="M47.5781 739.9H48.8906L49.8281 743.755L50.724 739.9H52.0573L52.9531 743.755L53.8906 739.9H55.1823L53.9323 745.213H52.349L51.3906 741.171L50.4323 745.213H48.849L47.5781 739.9Z" fill="#07073F"/>
<path d="M56.0156 741.234H57.3073V745.214H56.0156V741.234ZM56.0156 739.672H57.3073V740.714H56.0156V739.672Z" fill="#07073F"/>
<path d="M62.2868 740.068V741.193C61.9951 741.057 61.7086 740.958 61.4326 740.901C61.1513 740.833 60.8909 740.797 60.6409 740.797C60.3076 740.797 60.0628 740.849 59.9118 740.943C59.7555 741.026 59.6826 741.167 59.6826 741.359C59.6826 741.5 59.7295 741.609 59.8284 741.693C59.9378 741.766 60.1305 741.828 60.4118 741.88L60.9951 742.005C61.5888 742.13 62.0055 742.312 62.2451 742.547C62.4951 742.786 62.6201 743.13 62.6201 743.589C62.6201 744.172 62.443 744.609 62.0993 744.901C61.7503 745.182 61.2243 745.318 60.5159 745.318C60.1826 745.318 59.8388 745.281 59.4951 745.214C59.1618 745.161 58.818 745.068 58.4743 744.943V743.776C58.818 743.958 59.1462 744.099 59.4534 744.193C59.7712 744.276 60.0837 744.318 60.3909 744.318C60.6826 744.318 60.9014 744.271 61.0576 744.172C61.2243 744.078 61.3076 743.937 61.3076 743.755C61.3076 743.589 61.2503 743.464 61.1409 743.38C61.0264 743.286 60.8128 743.203 60.4951 743.13L59.9743 743.005C59.4326 742.896 59.0368 742.714 58.7868 742.464C58.5472 742.214 58.4326 741.875 58.4326 741.443C58.4326 740.917 58.5993 740.516 58.9326 740.234C59.2764 739.943 59.7712 739.797 60.4118 739.797C60.7139 739.797 61.0212 739.828 61.3285 739.88C61.6306 739.922 61.9534 739.984 62.2868 740.068Z" fill="#07073F"/>
<path d="M65.1615 740.088V741.234H66.474V742.13H65.1615V743.838C65.1615 744.02 65.1927 744.145 65.2656 744.213C65.349 744.27 65.5 744.296 65.724 744.296H66.3698V745.213H65.2865C64.7708 745.213 64.4115 745.109 64.2031 744.9C63.9948 744.692 63.8906 744.338 63.8906 743.838V742.13H63.2656V741.234H63.8906V740.088L65.1615 740.088Z" fill="#07073F"/>
<path d="M67.208 743.651V741.234H68.4997V741.63V742.443V743.089C68.4997 743.412 68.5049 743.646 68.5205 743.797C68.5309 743.938 68.5622 744.037 68.6038 744.089C68.6559 744.172 68.7288 744.245 68.8122 744.297C68.8955 744.339 68.9893 744.359 69.1038 744.359C69.3643 744.359 69.5726 744.255 69.7288 744.047C69.8799 743.839 69.958 743.557 69.958 743.193V741.234H71.2288V745.214H69.958V744.63C69.7601 744.87 69.5518 745.042 69.333 745.151C69.1247 745.26 68.8851 745.318 68.6247 745.318C68.1663 745.318 67.8122 745.182 67.5622 744.901C67.3226 744.609 67.208 744.193 67.208 743.651Z" fill="#07073F"/>
<path d="M75.1719 741.818V739.672H76.4427V745.213H75.1719V744.63C74.9896 744.87 74.7969 745.042 74.5886 745.151C74.3802 745.26 74.1354 745.318 73.8594 745.318C73.3594 745.318 72.9479 745.125 72.6302 744.734C72.3229 744.349 72.1719 743.838 72.1719 743.214C72.1719 742.604 72.3229 742.104 72.6302 741.714C72.9479 741.328 73.3594 741.13 73.8594 741.13C74.1198 741.13 74.3594 741.187 74.5677 741.297C74.7865 741.411 74.9896 741.583 75.1719 741.818ZM74.3177 744.401C74.5938 744.401 74.8021 744.307 74.9427 744.109C75.0938 743.901 75.1719 743.604 75.1719 743.214C75.1719 742.839 75.0938 742.557 74.9427 742.359C74.8021 742.151 74.5938 742.047 74.3177 742.047C74.0521 742.047 73.8438 742.151 73.6927 742.359C73.5521 742.557 73.4844 742.839 73.4844 743.214C73.4844 743.604 73.5521 743.901 73.6927 744.109C73.8438 744.307 74.0521 744.401 74.3177 744.401Z" fill="#07073F"/>
<path d="M77.6611 741.234H78.9528V745.214H77.6611V741.234ZM77.6611 739.672H78.9528V740.714H77.6611V739.672Z" fill="#07073F"/>
<path d="M82.0576 742.046C81.7763 742.046 81.5628 742.15 81.4117 742.358C81.2711 742.556 81.2034 742.837 81.2034 743.212C81.2034 743.603 81.2711 743.9 81.4117 744.108C81.5628 744.306 81.7763 744.4 82.0576 744.4C82.3336 744.4 82.5472 744.306 82.7034 744.108C82.8545 743.9 82.9326 743.603 82.9326 743.212C82.9326 742.837 82.8545 742.556 82.7034 742.358C82.5472 742.15 82.3336 742.046 82.0576 742.046ZM82.0576 741.129C82.7503 741.129 83.2868 741.316 83.6617 741.691C84.0471 742.056 84.2451 742.561 84.2451 743.212C84.2451 743.879 84.0471 744.4 83.6617 744.775C83.2867 745.139 82.7503 745.316 82.0576 745.316C81.3753 745.316 80.8388 745.139 80.4535 744.775C80.0628 744.4 79.8701 743.879 79.8701 743.212C79.8701 742.561 80.0628 742.056 80.4535 741.691C80.8389 741.316 81.3753 741.129 82.0576 741.129Z" fill="#07073F"/>
<path d="M3.08333 746.963V747.796H2.39583C2.21354 747.796 2.08333 747.833 1.99999 747.9C1.92708 747.973 1.89583 748.083 1.89583 748.234V748.525H2.99999V749.421H1.89583V752.505H0.625V749.421H0V748.525H0.625V748.234C0.625 747.807 0.739583 747.484 0.97916 747.275C1.22916 747.067 1.60937 746.963 2.125 746.963L3.08333 746.963Z" fill="#07073F"/>
<path d="M6.60904 749.609C6.49446 749.557 6.38508 749.516 6.27571 749.484C6.16113 749.458 6.05175 749.443 5.94238 749.443C5.60904 749.443 5.34863 749.557 5.17155 749.776C5.00488 749.984 4.92155 750.286 4.92155 750.672V752.505H3.62988V748.526H4.92155V749.172C5.07259 748.911 5.25488 748.724 5.46322 748.609C5.68196 748.484 5.94239 748.422 6.23404 748.422H6.37988C6.43197 748.422 6.50488 748.432 6.58822 748.443L6.60904 749.609Z" fill="#07073F"/>
<path d="M9.12497 749.339C8.84371 749.339 8.63018 749.443 8.47913 749.651C8.3385 749.849 8.27079 750.13 8.27079 750.505C8.27079 750.896 8.3385 751.193 8.47913 751.401C8.63017 751.599 8.84371 751.693 9.12497 751.693C9.40101 751.693 9.61455 751.599 9.77081 751.401C9.92185 751.193 9.99998 750.896 9.99998 750.505C9.99998 750.13 9.92185 749.849 9.77081 749.651C9.61455 749.443 9.40102 749.339 9.12497 749.339ZM9.12497 748.422C9.81767 748.422 10.3541 748.609 10.7291 748.984C11.1145 749.349 11.3124 749.854 11.3124 750.505C11.3124 751.172 11.1145 751.693 10.7291 752.068C10.3541 752.432 9.81765 752.609 9.12497 752.609C8.44267 752.609 7.90622 752.432 7.52083 752.068C7.13021 751.693 6.9375 751.172 6.9375 750.505C6.9375 749.854 7.13021 749.349 7.52083 748.984C7.90625 748.609 8.44271 748.422 9.12497 748.422Z" fill="#07073F"/>
<path d="M15.9427 749.172C16.0938 748.938 16.2813 748.755 16.5052 748.63C16.724 748.495 16.974 748.422 17.2552 748.422C17.6979 748.422 18.0365 748.568 18.276 748.859C18.526 749.141 18.651 749.542 18.651 750.068V752.505H17.3594V750.422C17.3698 750.396 17.3802 750.37 17.3802 750.339V750.193C17.3802 749.901 17.3385 749.693 17.2552 749.568C17.1719 749.443 17.0365 749.38 16.8594 749.38C16.6094 749.38 16.4115 749.484 16.276 749.693C16.151 749.891 16.0885 750.172 16.0885 750.547V752.505H14.7969V750.422C14.7969 749.979 14.7552 749.693 14.6719 749.568C14.599 749.443 14.4688 749.38 14.276 749.38C14.0365 749.38 13.849 749.484 13.7135 749.693C13.5885 749.891 13.526 750.172 13.526 750.547V752.505H12.2344V748.526H13.526V749.109C13.6771 748.875 13.849 748.703 14.0469 748.589C14.2552 748.479 14.4844 748.422 14.7344 748.422C15.0104 748.422 15.2552 748.495 15.4635 748.63C15.6719 748.755 15.8281 748.938 15.9427 749.172Z" fill="#07073F"/>
<path d="M23.7708 747.379V748.525H25.0833V749.421H23.7708V751.129C23.7708 751.311 23.8021 751.436 23.875 751.504C23.9583 751.561 24.1094 751.587 24.3333 751.587H24.9792V752.504H23.8958C23.3802 752.504 23.0208 752.4 22.8125 752.191C22.6042 751.983 22.5 751.629 22.5 751.129V749.421H21.875V748.525H22.5V747.379L23.7708 747.379Z" fill="#07073F"/>
<path d="M29.8802 750.067V752.504H28.5885V750.65C28.5885 750.307 28.5781 750.067 28.5677 749.942C28.5521 749.807 28.526 749.708 28.4844 749.65C28.4427 749.567 28.3698 749.504 28.276 749.463C28.1927 749.411 28.099 749.379 28.0052 749.379C27.724 749.379 27.5104 749.484 27.3594 749.692C27.2187 749.9 27.151 750.187 27.151 750.546V752.504H25.8594V746.963H27.151V749.109C27.3281 748.874 27.5313 748.703 27.7552 748.588C27.9739 748.479 28.2135 748.421 28.4635 748.421C28.9219 748.421 29.2656 748.567 29.5052 748.859C29.7552 749.14 29.8802 749.541 29.8802 750.067Z" fill="#07073F"/>
<path d="M35.0257 750.505V750.859H32.0465C32.0882 751.167 32.1976 751.396 32.3799 751.547C32.5569 751.688 32.8174 751.755 33.1507 751.755C33.4267 751.755 33.7028 751.724 33.984 751.651C34.2601 751.568 34.5465 751.443 34.8382 751.276V752.255C34.5465 752.38 34.2444 752.474 33.9423 752.526C33.6351 752.578 33.3382 752.609 33.0465 752.609C32.3225 752.609 31.7601 752.432 31.359 752.068C30.9528 751.693 30.7549 751.172 30.7549 750.505C30.7549 749.87 30.9476 749.359 31.3382 748.984C31.7393 748.609 32.2809 748.422 32.9633 748.422C33.5883 748.422 34.0883 748.609 34.4633 748.984C34.8383 749.359 35.0257 749.87 35.0257 750.505ZM33.7341 750.068C33.7341 749.833 33.6559 749.646 33.5049 749.505C33.3643 749.354 33.182 749.276 32.9632 749.276C32.7132 749.276 32.5101 749.349 32.3591 749.484C32.2028 749.625 32.1091 749.818 32.0674 750.068L33.7341 750.068Z" fill="#07073F"/>
<path d="M38.5938 747.191H40.1354L42.052 750.837V747.191H43.3645V752.504H41.8229L39.9063 748.858V752.504H38.5938V747.191Z" fill="#07073F"/>
<path d="M46.5312 749.339C46.25 749.339 46.0364 749.443 45.8854 749.651C45.7447 749.849 45.677 750.13 45.677 750.505C45.677 750.896 45.7448 751.193 45.8854 751.401C46.0364 751.599 46.25 751.693 46.5312 751.693C46.8073 751.693 47.0208 751.599 47.1771 751.401C47.3281 751.193 47.4062 750.896 47.4062 750.505C47.4062 750.13 47.3281 749.849 47.1771 749.651C47.0208 749.443 46.8073 749.339 46.5312 749.339ZM46.5312 748.422C47.2239 748.422 47.7604 748.609 48.1354 748.984C48.5208 749.349 48.7187 749.854 48.7187 750.505C48.7187 751.172 48.5208 751.693 48.1354 752.068C47.7604 752.432 47.2239 752.609 46.5312 752.609C45.8489 752.609 45.3125 752.432 44.9271 752.068C44.5365 751.693 44.3438 751.172 44.3438 750.505C44.3438 749.854 44.5365 749.349 44.9271 748.984C45.3125 748.609 45.849 748.422 46.5312 748.422Z" fill="#07073F"/>
<path d="M49.6045 750.942V748.525H50.8962V748.921V749.734V750.38C50.8962 750.703 50.9014 750.937 50.917 751.088C50.9274 751.229 50.9587 751.328 51.0003 751.38C51.0524 751.463 51.1253 751.536 51.2087 751.588C51.292 751.63 51.3857 751.65 51.5003 751.65C51.7607 751.65 51.9691 751.546 52.1253 751.338C52.2764 751.13 52.3545 750.848 52.3545 750.484V748.525H53.6253V752.505H52.3545V751.921C52.1566 752.161 51.9482 752.333 51.7295 752.442C51.5212 752.551 51.2816 752.609 51.0212 752.609C50.5628 752.609 50.2087 752.473 49.9587 752.192C49.7191 751.9 49.6045 751.484 49.6045 750.942Z" fill="#07073F"/>
<path d="M58.8597 750.068V752.505H57.568V750.651C57.568 750.307 57.5576 750.068 57.5472 749.943C57.5316 749.807 57.5055 749.708 57.4639 749.651C57.4222 749.568 57.3493 749.505 57.2555 749.464C57.1722 749.411 57.0785 749.38 56.9847 749.38C56.7035 749.38 56.4899 749.484 56.3389 749.693C56.1982 749.901 56.1305 750.187 56.1305 750.547V752.505H54.8389V748.526H56.1305V749.109C56.3076 748.875 56.5107 748.703 56.7347 748.589C56.9534 748.479 57.193 748.422 57.443 748.422C57.9014 748.422 58.2451 748.568 58.4847 748.859C58.7347 749.141 58.8597 749.542 58.8597 750.068Z" fill="#07073F"/>
<path d="M62.6299 747.191H64.9007C65.5778 747.191 66.0986 747.348 66.4632 747.65C66.8226 747.941 67.0049 748.368 67.0049 748.921C67.0049 749.478 66.8226 749.91 66.4632 750.212C66.0986 750.504 65.5778 750.65 64.9007 750.65H64.0048V752.504H62.6299L62.6299 747.191ZM64.0048 748.191V749.671H64.7548C65.0152 749.671 65.2184 749.608 65.359 749.483C65.51 749.348 65.5881 749.16 65.5881 748.921C65.5881 748.686 65.51 748.504 65.359 748.379C65.2183 748.254 65.0152 748.191 64.7548 748.191L64.0048 748.191Z" fill="#07073F"/>
<path d="M70.8903 749.609C70.7757 749.557 70.6663 749.516 70.557 749.484C70.4424 749.458 70.333 749.443 70.2236 749.443C69.8903 749.443 69.6299 749.557 69.4528 749.776C69.2861 749.984 69.2028 750.286 69.2028 750.672V752.505H67.9111V748.526H69.2028V749.172C69.3538 748.911 69.5361 748.724 69.7445 748.609C69.9632 748.484 70.2236 748.422 70.5153 748.422H70.6611C70.7132 748.422 70.7861 748.432 70.8695 748.443L70.8903 749.609Z" fill="#07073F"/>
<path d="M73.4013 749.339C73.1201 749.339 72.9065 749.443 72.7555 749.651C72.6149 749.849 72.5472 750.13 72.5472 750.505C72.5472 750.896 72.6149 751.193 72.7555 751.401C72.9065 751.599 73.1201 751.693 73.4013 751.693C73.6774 751.693 73.8909 751.599 74.0472 751.401C74.1982 751.193 74.2763 750.896 74.2763 750.505C74.2763 750.13 74.1982 749.849 74.0472 749.651C73.8909 749.443 73.6774 749.339 73.4013 749.339ZM73.4013 748.422C74.094 748.422 74.6305 748.609 75.0055 748.984C75.3909 749.349 75.5888 749.854 75.5888 750.505C75.5888 751.172 75.3909 751.693 75.0055 752.068C74.6305 752.432 74.094 752.609 73.4013 752.609C72.719 752.609 72.1826 752.432 71.7972 752.068C71.4066 751.693 71.2139 751.172 71.2139 750.505C71.2139 749.854 71.4066 749.349 71.7972 748.984C72.1826 748.609 72.7191 748.422 73.4013 748.422Z" fill="#07073F"/>
<path d="M76.5153 748.525H77.807V752.442C77.807 752.968 77.6716 753.369 77.4111 753.65C77.1611 753.942 76.7913 754.088 76.307 754.088H75.6611V753.234H75.8903C76.1247 753.234 76.2861 753.176 76.3695 753.067C76.4632 752.968 76.5153 752.76 76.5153 752.442L76.5153 748.525ZM76.5153 746.963H77.807V748.005H76.5153V746.963Z" fill="#07073F"/>
<path d="M82.9945 750.505V750.859H80.0153C80.057 751.167 80.1663 751.396 80.3486 751.547C80.5257 751.688 80.7861 751.755 81.1194 751.755C81.3955 751.755 81.6715 751.724 81.9528 751.651C82.2288 751.568 82.5153 751.443 82.8069 751.276V752.255C82.5153 752.38 82.2132 752.474 81.9111 752.526C81.6038 752.578 81.3069 752.609 81.0153 752.609C80.2913 752.609 79.7288 752.432 79.3278 752.068C78.9215 751.693 78.7236 751.172 78.7236 750.505C78.7236 749.87 78.9163 749.359 79.307 748.984C79.708 748.609 80.2497 748.422 80.932 748.422C81.557 748.422 82.057 748.609 82.432 748.984C82.807 749.359 82.9945 749.87 82.9945 750.505ZM81.7028 750.068C81.7028 749.833 81.6247 749.646 81.4736 749.505C81.333 749.354 81.1507 749.276 80.932 749.276C80.682 749.276 80.4789 749.349 80.3278 749.484C80.1716 749.625 80.0778 749.818 80.0362 750.068L81.7028 750.068Z" fill="#07073F"/>
<path d="M87.1878 748.651V749.672C87.0211 749.562 86.844 749.479 86.6669 749.422C86.4846 749.37 86.3024 749.339 86.1253 749.339C85.7607 749.339 85.4846 749.443 85.2919 749.651C85.094 749.859 85.0003 750.146 85.0003 750.505C85.0003 750.88 85.094 751.172 85.2919 751.38C85.4846 751.589 85.7607 751.693 86.1253 751.693C86.318 751.693 86.5055 751.667 86.6878 751.609C86.8649 751.557 87.0315 751.464 87.1878 751.339V752.38C86.9899 752.464 86.7919 752.516 86.5836 752.547C86.3753 752.589 86.167 752.609 85.9586 752.609C85.2347 752.609 84.6722 752.432 84.2712 752.068C83.8649 751.693 83.667 751.172 83.667 750.505C83.667 749.854 83.8649 749.349 84.2712 748.984C84.6722 748.609 85.2347 748.422 85.9586 748.422C86.167 748.422 86.3753 748.443 86.5836 748.484C86.792 748.516 86.9899 748.568 87.1878 748.651Z" fill="#07073F"/>
<path d="M89.6771 747.379V748.525H90.9896V749.421H89.6771V751.129C89.6771 751.311 89.7083 751.436 89.7813 751.504C89.8646 751.561 90.0156 751.587 90.2396 751.587H90.8854V752.504H89.8021C89.2865 752.504 88.9271 752.4 88.7188 752.191C88.5104 751.983 88.4063 751.629 88.4063 751.129V749.421H87.7812V748.525H88.4063V747.379L89.6771 747.379Z" fill="#07073F"/>
</svg>
