<svg width="576" height="701" viewBox="0 0 576 701" fill="none" xmlns="http://www.w3.org/2000/svg">
<path d="M427.213 459.959C426.63 459.959 425.901 459.959 425.317 459.813C425.463 458.209 425.609 456.459 425.609 454.855C425.609 430.21 405.63 410.23 380.984 410.23H378.942V408.188C378.942 388.355 365.963 371 347.005 365.313L400.963 311.355C418.463 293.855 418.463 265.563 400.963 248.209C383.463 230.709 355.171 230.709 337.818 248.209L299.173 286.855V210H380.839C438.735 210 485.839 162.896 485.839 105C485.839 98.5833 480.589 93.3333 474.173 93.3333H380.839C358.235 93.3333 336.361 100.625 318.277 114.041L365.818 66.5L349.339 50.0213L299.465 99.896C302.09 56.8747 337.673 23.3333 380.839 23.3333H414.965C412.923 37.7707 407.09 51.3333 397.902 62.708L416.131 77.292C431.006 58.6253 439.173 35.584 439.173 11.6667C439.173 5.25 433.923 0 427.506 0H380.839C341.465 0 305.443 22.0213 287.506 57.0213C269.569 22.0213 233.547 0 194.173 0C187.756 0 182.506 5.25 182.506 11.6667V46.6667C182.506 54.8333 183.381 62.8547 185.277 70.8747C180.464 70.2913 175.652 69.9997 170.84 69.9997H100.84C94.4229 69.9997 89.1729 75.2497 89.1729 81.6663C89.3187 152.541 146.632 209.854 217.506 210H275.84V286.854L237.485 248.5C219.985 231 191.693 231 174.34 248.5C156.84 266 156.84 294.292 174.34 311.645L224.361 361.666L183.673 402.354C167.924 417.958 159.173 439.25 159.173 461.417C159.173 474.396 162.235 487.084 167.923 498.75L229.174 621.105V700.001H252.507V618.334C252.507 616.584 252.069 614.689 251.34 613.084L188.924 488.251C184.695 479.938 182.653 470.751 182.508 461.418C182.508 445.522 188.778 430.21 200.153 418.98L354.153 264.98C362.465 256.668 376.028 256.668 384.341 264.98C392.654 273.293 392.653 286.855 384.341 295.168L244.341 435.168L260.82 451.647L319.153 393.314C327.465 385.001 341.028 385.001 349.341 393.314C357.654 401.626 357.653 415.188 349.341 423.502L291.008 481.835L307.486 498.314L365.82 439.98C374.132 431.668 387.694 431.668 396.008 439.98C404.321 448.293 404.32 461.855 396.008 470.168L337.674 528.502L354.153 544.98L410.008 489.126C417.882 481.251 430.57 481.251 438.445 489.126C445.007 495.688 446.174 506.043 441.216 513.918L394.404 588.876C393.237 590.772 392.654 592.814 392.654 595.001V700.001H415.987V598.356L461.05 526.315C473.737 506.044 467.612 479.211 447.195 466.523C441.07 462.731 434.216 460.544 427.216 459.96L427.213 459.959ZM301.651 178.213L398.921 129.65L409.421 150.505L336.943 186.671H300.047C300.484 183.755 300.921 180.983 301.651 178.213ZM247.4 186.671H217.504C163.982 186.671 119.212 146.42 113.088 93.3376H170.837C219.982 93.3376 262.567 127.463 273.359 175.442L165.441 106.754L152.9 126.442L247.4 186.671Z" fill="#07073F"/>
<path d="M420.014 358.905L434.951 340.979L575.004 457.667L560.067 475.593L420.014 358.905Z" fill="#07073F"/>
<path d="M433.413 266.84L444.991 246.58L526.658 293.247L515.08 313.507L433.413 266.84Z" fill="#07073F"/>
<path d="M491.533 185.026L503.538 165.016L561.814 199.98L549.809 219.99L491.533 185.026Z" fill="#07073F"/>
<path d="M504.906 70.8049L563.266 47.4609L571.933 69.1276L513.573 92.4716L504.906 70.8049Z" fill="#07073F"/>
<path d="M455.507 37.3281L502.174 2.32812L516.174 20.9948L469.507 55.9948L455.507 37.3281Z" fill="#07073F"/>
<path d="M0 457.733L140.053 341.045L154.991 358.972L14.9373 475.66L0 457.733Z" fill="#07073F"/>
<path d="M48.4531 293.186L130.125 246.52L141.703 266.78L60.0313 313.446L48.4531 293.186Z" fill="#07073F"/>
<path d="M13.2002 199.985L71.4762 165.021L83.4814 185.032L25.2054 219.996L13.2002 199.985Z" fill="#07073F"/>
<path d="M3.22656 69.1862L11.8932 47.5195L70.2532 70.8635L61.5866 92.5302L3.22656 69.1862Z" fill="#07073F"/>
<path d="M59.8662 21.6864L71.8714 1.67578L130.147 36.6398L118.142 56.6504L59.8662 21.6864Z" fill="#07073F"/>
</svg>
