<svg width="706" height="701" viewBox="0 0 706 701" fill="none" xmlns="http://www.w3.org/2000/svg">
<path d="M350.089 350C446.777 350 525.089 271.688 525.089 175C525.089 78.312 446.777 0 350.089 0C253.401 0 175.089 78.312 175.089 175C175.235 271.541 253.548 349.853 350.089 350ZM350.089 23.3333C433.797 23.3333 501.756 91.292 501.756 175C501.756 258.708 433.797 326.667 350.089 326.667C266.381 326.667 198.422 258.708 198.422 175C198.568 91.292 266.381 23.48 350.089 23.3333Z" fill="#07073F"/>
<path d="M291.755 186.668H268.422C268.422 231.731 305.026 268.335 350.089 268.335C395.151 268.335 431.755 231.731 431.755 186.668H408.422C408.422 218.897 382.318 245.001 350.089 245.001C317.859 245.001 291.755 218.897 291.755 186.668Z" fill="#07073F"/>
<path d="M88.0223 221.96C105.377 186.523 129.585 155.023 159.481 129.356L144.169 111.711C78.1063 168.732 38.585 250.684 35.377 337.898L58.7103 338.773C60.0228 298.231 70.0852 258.418 88.0223 221.96Z" fill="#07073F"/>
<path d="M383.783 639.772C372.553 641.085 361.324 641.668 350.095 641.668C319.616 641.668 289.283 637.001 260.407 627.668L253.261 649.835C284.469 659.897 317.135 665.001 350.094 665.001C362.198 665.001 374.302 664.272 386.406 662.96L383.783 639.772Z" fill="#07073F"/>
<path d="M614.489 226.626L635.634 216.71C615.801 174.71 587.072 137.376 551.489 107.627L536.614 125.564C569.573 153.127 596.114 187.689 614.489 226.626Z" fill="#07073F"/>
<path d="M11.7559 536.667H35.0893V583.334C35.0893 602.585 50.8386 618.334 70.0893 618.334H81.7559V700.001H105.089V606.667C105.089 600.251 99.8393 595.001 93.4226 595.001H70.0893C63.6726 595.001 58.4226 589.751 58.4226 583.334V525.001C58.4226 518.584 53.1726 513.334 46.7559 513.334H30.5679L57.1093 460.251C57.9843 458.647 58.2759 456.897 58.2759 455.001C58.2759 397.105 105.38 350.001 163.276 350.001H174.943C232.839 350.001 279.943 397.105 279.943 455.001C280.088 504.293 260.547 551.397 225.547 586.105L213.297 598.355C211.109 600.543 209.942 603.46 209.942 606.668V700.001H233.276V611.48L242.172 602.584C281.546 563.647 303.568 510.417 303.422 454.997C303.276 384.123 245.964 326.809 175.089 326.664H163.422C93.7143 326.81 36.693 382.519 35.089 452.227L1.25566 519.893C-1.661 525.727 0.672328 532.727 6.50566 535.497C8.1098 536.227 10.0057 536.664 11.7557 536.664L11.7559 536.667Z" fill="#07073F"/>
<path d="M81.7559 466.668C81.7559 476.001 83.36 485.189 86.4225 493.939L108.444 486.209C106.256 479.939 105.09 473.376 105.09 466.813H81.7564L81.7559 466.668Z" fill="#07073F"/>
<path d="M163.422 548.333C186.61 548.333 208.777 538.416 224.234 521.062L206.879 505.458C185.442 529.521 148.546 531.562 124.483 509.979C120.837 506.625 117.483 502.833 114.712 498.75L95.3164 511.875C110.483 534.624 136.004 548.334 163.42 548.334L163.422 548.333Z" fill="#07073F"/>
<path d="M245.088 466.667C245.088 457.334 243.484 448.146 240.422 439.396L218.4 447.126C220.588 453.396 221.755 459.959 221.755 466.522H245.088L245.088 466.667Z" fill="#07073F"/>
<path d="M163.422 385C143.297 385 123.901 392.437 109.026 405.855L124.63 423.209C148.693 401.772 185.589 403.813 207.026 427.876C208.922 429.918 210.672 432.105 212.13 434.439L231.526 421.459C216.36 398.71 190.838 385 163.422 385Z" fill="#07073F"/>
<path d="M579.635 245L559.219 193.959L537.49 202.563L560.823 260.896C562.573 265.271 566.948 268.188 571.615 268.188H629.948C636.365 268.188 641.615 273.438 641.615 279.855V396.522C641.615 402.938 636.365 408.188 629.948 408.188H466.762C460.345 408.188 455.095 402.938 455.095 396.522V349.855H431.762V396.522C431.762 415.772 447.511 431.522 466.762 431.522H630.095C649.346 431.522 665.095 415.772 665.095 396.522V279.855C665.095 260.604 649.346 244.855 630.095 244.855H579.636L579.635 245Z" fill="#07073F"/>
<path d="M501.756 291.668V315.001H490.089V338.335H501.756V385.001H525.089V338.335H536.756V315.001H525.089V291.668H501.756Z" fill="#07073F"/>
<path d="M571.756 291.668V338.335H560.089V361.668H571.756V385.001H595.089V361.668H606.756V338.335H595.089V291.668H571.756Z" fill="#07073F"/>
<path d="M549.582 506.919L552.791 513.336H527.708C514.437 513.336 502.333 520.773 496.353 532.732L470.541 519.898L476.958 507.065C479.875 501.232 477.541 494.232 471.708 491.461L331.708 421.461L321.208 442.316L450.708 507.065L402.583 603.316L307.791 561.17L298.312 582.462L403.312 629.129C407.832 631.171 413.082 630.15 416.582 626.504L431.457 636.421V653.338C431.457 657.421 433.644 661.213 437.144 663.4L482.352 690.526C494.311 697.672 509.331 697.088 520.707 689.067L589.832 639.775L609.666 626.505C613.02 630.005 618.27 631.171 622.791 629.275L704.458 594.275L695.27 572.838L623.666 603.463L575.541 507.067L705.041 442.318L694.541 421.463L554.541 491.463C549.145 494.088 546.812 501.088 549.582 506.922L549.582 506.919ZM507.437 669.959C503.645 672.73 498.687 672.876 494.604 670.396L455.082 646.771V630C455.082 626.063 453.187 622.417 449.832 620.23L427.811 605.5L460.332 540.604L486.144 553.438L468.062 589.604C465.437 594.854 467.187 601.271 471.999 604.479L487.603 614.833C503.645 625.625 525.374 621.25 536.166 605.062L538.645 601.271L565.478 628.104L507.437 669.959ZM599.021 605.647L584.876 614.98L544.917 575.022C540.396 570.501 532.959 570.501 528.438 575.022C527.855 575.605 527.418 576.188 526.98 576.772L516.626 592.376C512.98 597.771 505.834 599.23 500.438 595.584L493.438 590.917L517.355 543.084C519.251 539.146 523.334 536.667 527.855 536.667H564.605L599.021 605.647Z" fill="#07073F"/>
<path d="M291.756 116.665C298.173 116.665 303.423 121.915 303.423 128.332H326.756C326.756 108.936 311.152 93.332 291.756 93.332C272.36 93.332 256.756 108.936 256.756 128.332H280.089C280.089 121.915 285.339 116.665 291.756 116.665Z" fill="#07073F"/>
<path d="M408.422 116.665C414.839 116.665 420.089 121.915 420.089 128.332H443.422C443.422 108.936 427.818 93.332 408.422 93.332C389.026 93.332 373.422 108.936 373.422 128.332H396.755C396.755 121.915 402.005 116.665 408.422 116.665Z" fill="#07073F"/>
</svg>
